<svg xmlns="http://www.w3.org/2000/svg" viewBox="0 0 8 15" fill="#8E9CBB">
    <path d="M4.696 14.709c-.391.39-1.026.39-1.417 0l-2.986-2.98a.999.999 0 0 1 0-1.414 1.003 1.003 0 0 1 1.417 0l2.986 2.98a.999.999 0 0 1 0 1.414Z"/>
    <path d="M3.304 14.709c.391.39 1.025.39 1.417 0l2.986-2.98a.999.999 0 0 0 0-1.414 1.003 1.003 0 0 0-1.417 0l-2.986 2.98a.999.999 0 0 0 0 1.414Z"/>
    <path  d="M3.988 14.016a1 1 0 0 1-1.002-1V3a1 1 0 0 1 2.003 0v10.016a1 1 0 0 1-1.001 1Z"/>
    <path d="M4.696.293a1.003 1.003 0 0 0-1.417 0L.293 3.272a.999.999 0 0 0 0 1.414c.392.39 1.026.39 1.417 0l2.986-2.979a.999.999 0 0 0 0-1.414Z"/>
    <path d="M3.304.293a1.003 1.003 0 0 1 1.417 0l2.986 2.979a.999.999 0 0 1 0 1.414c-.392.39-1.026.39-1.417 0L3.304 1.707a.999.999 0 0 1 0-1.414Z"/>
</svg>